<svg width="300" height="300" viewBox="0 0 261 261" fill="none" xmlns="http://www.w3.org/2000/svg">
<circle cx="130.5" cy="130.5" r="122" stroke="#FF0000" stroke-width="17"/>
<path d="M79.0341 95.1818V165H64.2727V109.193H63.8636L47.875 119.216V106.125L65.1591 95.1818H79.0341ZM121.673 165.955C116.423 165.955 111.753 165.102 107.662 163.398C103.594 161.67 100.401 159.318 98.0824 156.341C95.7642 153.364 94.6051 149.989 94.6051 146.216C94.6051 143.307 95.2642 140.636 96.5824 138.205C97.9233 135.75 99.7415 133.716 102.037 132.102C104.332 130.466 106.901 129.42 109.741 128.966V128.489C106.014 127.739 102.991 125.932 100.673 123.068C98.3551 120.182 97.196 116.83 97.196 113.011C97.196 109.398 98.2528 106.182 100.366 103.364C102.48 100.523 105.378 98.2955 109.06 96.6818C112.764 95.0455 116.969 94.2273 121.673 94.2273C126.378 94.2273 130.571 95.0455 134.253 96.6818C137.957 98.3182 140.866 100.557 142.98 103.398C145.094 106.216 146.162 109.42 146.185 113.011C146.162 116.852 144.98 120.205 142.639 123.068C140.298 125.932 137.298 127.739 133.639 128.489V128.966C136.435 129.42 138.969 130.466 141.241 132.102C143.537 133.716 145.355 135.75 146.696 138.205C148.06 140.636 148.753 143.307 148.776 146.216C148.753 149.989 147.582 153.364 145.264 156.341C142.946 159.318 139.741 161.67 135.651 163.398C131.582 165.102 126.923 165.955 121.673 165.955ZM121.673 155.114C124.014 155.114 126.06 154.693 127.81 153.852C129.56 152.989 130.923 151.807 131.901 150.307C132.901 148.784 133.401 147.034 133.401 145.057C133.401 143.034 132.889 141.25 131.866 139.705C130.844 138.136 129.457 136.909 127.707 136.023C125.957 135.114 123.946 134.659 121.673 134.659C119.423 134.659 117.412 135.114 115.639 136.023C113.866 136.909 112.469 138.136 111.446 139.705C110.446 141.25 109.946 143.034 109.946 145.057C109.946 147.034 110.435 148.784 111.412 150.307C112.389 151.807 113.764 152.989 115.537 153.852C117.31 154.693 119.355 155.114 121.673 155.114ZM121.673 123.92C123.628 123.92 125.366 123.523 126.889 122.727C128.412 121.932 129.605 120.83 130.469 119.42C131.332 118.011 131.764 116.386 131.764 114.545C131.764 112.727 131.332 111.136 130.469 109.773C129.605 108.386 128.423 107.307 126.923 106.534C125.423 105.739 123.673 105.341 121.673 105.341C119.696 105.341 117.946 105.739 116.423 106.534C114.901 107.307 113.707 108.386 112.844 109.773C112.003 111.136 111.582 112.727 111.582 114.545C111.582 116.386 112.014 118.011 112.878 119.42C113.741 120.83 114.935 121.932 116.457 122.727C117.98 123.523 119.719 123.92 121.673 123.92ZM179.96 154.364V106.091H192.165V154.364H179.96ZM161.926 136.33V124.125H210.199V136.33H161.926Z" fill="#FF0000"/>
</svg>
